<svg id="Layer_2" data-name="Layer 2" xmlns="http://www.w3.org/2000/svg" width="325.91" height="380.05" viewBox="0 0 325.91 380.05"><defs><style>.cls-1,.cls-4{fill:none;}.cls-1,.cls-2,.cls-4{stroke:#010101;}.cls-1,.cls-2{stroke-linejoin:bevel;stroke-width:21.47px;}.cls-2{fill:#fff;}.cls-3{fill:#010101;}.cls-4{stroke-miterlimit:10;stroke-width:42.94px;}</style></defs><title>r</title><path class="cls-1" d="M436,259" transform="translate(-247.41 -111.47)"/><path class="cls-1" d="M385.77,257.31" transform="translate(-247.41 -111.47)"/><path class="cls-1" d="M410.64,269.22" transform="translate(-247.41 -111.47)"/><path class="cls-2" d="M410.64,269.22" transform="translate(-247.41 -111.47)"/><path class="cls-1" d="M385.77,257.31" transform="translate(-247.41 -111.47)"/><path class="cls-1" d="M436,259" transform="translate(-247.41 -111.47)"/><path class="cls-1" d="M410.64,269.22" transform="translate(-247.41 -111.47)"/><path class="cls-3" d="M487.49,276c0,25-12.26,46.24-30.9,56.2l35.76,52.37H440.24l-26.06-43.17H383.52v43.17H341.63V210.82h84.05C460.93,210.82,487.49,238.15,487.49,276Zm-104-26.32v52.89h36c14.31,0,25.81-12,25.81-26.57,0-14.31-11.5-26.32-25.55-26.32Z" transform="translate(-247.41 -111.47)"/><polygon class="cls-4" points="162.91 24.01 21.47 94.8 21.47 278.59 162.91 355.62 304.44 279.09 304.44 94.8 162.91 24.01"/></svg>