<svg id="Layer_1" data-name="Layer 1" xmlns="http://www.w3.org/2000/svg" width="676.03" height="145.26" viewBox="0 0 676.03 145.26"><defs><style>.cls-1{fill:#F1F3F4;}.cls-2,.cls-4{fill:none;}.cls-2,.cls-3,.cls-4{stroke:#F1F3F4;}.cls-2,.cls-3{stroke-linejoin:bevel;stroke-width:8.21px;}.cls-3{fill:#fff;}.cls-4{stroke-miterlimit:10;stroke-width:16.41px;}</style></defs><title>final_logo</title><path class="cls-1" d="M257.84,296.69c0,13.09-8.29,25.78-25.28,25.78H218.11v15H202v-66.4h30.66C249.64,271.11,257.84,283.81,257.84,296.69ZM218.11,286v21.78H230.8c6.44,0,10.84-3.81,10.84-11s-4.4-10.64-10.84-10.74Z" transform="translate(-56.18 -233.01)"/><path class="cls-1" d="M325.89,296c0,9.57-4.68,17.67-11.81,21.48l13.67,20H307.83l-10-16.5H286.15v16.5h-16v-66.4h32.12C315.74,271.11,325.89,281.56,325.89,296ZM286.15,286v20.22h13.77A10.11,10.11,0,0,0,300,286Z" transform="translate(-56.18 -233.01)"/><path class="cls-1" d="M401.46,304.31a34.28,34.28,0,1,1-34.28-34.37A34.41,34.41,0,0,1,401.46,304.31Zm-53.9,0a19.53,19.53,0,1,0,19.62-19.43A19.54,19.54,0,0,0,347.56,304.31Z" transform="translate(-56.18 -233.01)"/><path class="cls-1" d="M461.88,308.8c0,17.87-8.68,29.88-26.65,29.88-14.84,0-26.66-12-26.66-29.19h16c0,9.47,4.1,14.35,10.64,14.35s10.54-4.88,10.54-15V271.11h16.11Z" transform="translate(-56.18 -233.01)"/><path class="cls-1" d="M525.73,271.11V286H490.87v11.43H520v13.86h-29.1v11.43h34.86v14.84H474.86v-66.4Z" transform="translate(-56.18 -233.01)"/><path class="cls-1" d="M600,321.4a35.59,35.59,0,0,1-31,17.28c-20.8,0-35.93-15.23-35.93-34.86,0-18.45,15.13-33.88,35.93-33.88,14.16,0,25.29,6.64,31.25,16.6l-13.58,7.91c-3.12-6.06-9.27-10.06-17.67-10.06-11.62,0-19.72,8.5-19.72,19.43A19.56,19.56,0,0,0,569,323.64a19.32,19.32,0,0,0,17.48-10.05Z" transform="translate(-56.18 -233.01)"/><path class="cls-1" d="M670.12,286H646.59v51.56H630.38V286H606.85V271.11h63.27Z" transform="translate(-56.18 -233.01)"/><path class="cls-1" d="M730.56,292.11H714.64c0-3.32-3.91-7.82-10.74-7.82-4.79,0-10.64,2.15-10.64,6,0,3.22,4.39,4.49,13.76,6.93,10.45,2.74,25.19,6.25,25.19,20.9,0,12.69-11.13,20.6-26.65,20.6-20.8,0-29.49-14.06-29.49-24.41H692s1.27,10.55,14.45,10.55c7.13,0,9.76-3,9.76-5.86,0-4.2-5.56-5.67-11.71-7.13-10-2.34-27.44-6.05-27.44-20.8,0-12.11,11.91-21.09,27-21.09C721.38,269.94,730.56,281.75,730.56,292.11Z" transform="translate(-56.18 -233.01)"/><path class="cls-2" d="M128.25,289.39" transform="translate(-56.18 -233.01)"/><path class="cls-2" d="M109.07,288.76" transform="translate(-56.18 -233.01)"/><path class="cls-2" d="M118.58,293.31" transform="translate(-56.18 -233.01)"/><path class="cls-3" d="M118.58,293.31" transform="translate(-56.18 -233.01)"/><path class="cls-2" d="M109.07,288.76" transform="translate(-56.18 -233.01)"/><path class="cls-2" d="M128.25,289.39" transform="translate(-56.18 -233.01)"/><path class="cls-2" d="M118.58,293.31" transform="translate(-56.18 -233.01)"/><path class="cls-1" d="M148,295.88c0,9.57-4.69,17.68-11.81,21.49l13.67,20H129.89l-10-16.5H108.21v16.5h-16V271h32.12C137.8,271,148,281.43,148,295.88Zm-39.74-10.05V306H122a10.11,10.11,0,0,0,.1-20.21Z" transform="translate(-56.18 -233.01)"/><polygon class="cls-4" points="62.27 9.18 8.21 36.23 8.21 106.48 62.27 135.93 116.36 106.67 116.36 36.23 62.27 9.18"/></svg>